REM DIRINDEX 1\2,1\3
REM DIRNAME folder01,folder02,folder03
TITLE ""
FILE "36.mp3" MP3
  TRACK 01 AUDIO
    TITLE "0:"
    INDEX 01 00:00:00
  TRACK 02 AUDIO
    TITLE "3:cjc132_0671"
    INDEX 01 00:00:15
  TRACK 03 AUDIO
    TITLE "0:"
    INDEX 01 00:01:11
  TRACK 04 AUDIO
    TITLE "2:cjc132_0672"
    INDEX 01 00:01:60
  TRACK 05 AUDIO
    TITLE "0:"
    INDEX 01 00:03:04
  TRACK 06 AUDIO
    TITLE "2:cjc132_0673"
    INDEX 01 00:03:53
  TRACK 07 AUDIO
    TITLE "0:"
    INDEX 01 00:04:52
  TRACK 08 AUDIO
    TITLE "2:cjc132_0674"
    INDEX 01 00:05:22
  TRACK 09 AUDIO
    TITLE "0:"
    INDEX 01 00:06:30
  TRACK 10 AUDIO
    TITLE "2:cjc132_0675"
    INDEX 01 00:07:03
  TRACK 11 AUDIO
    TITLE "0:"
    INDEX 01 00:08:34
  TRACK 12 AUDIO
    TITLE "2:cjc132_0676"
    INDEX 01 00:09:08
  TRACK 13 AUDIO
    TITLE "0:"
    INDEX 01 00:10:57
  TRACK 14 AUDIO
    TITLE "2:cjc132_0677"
    INDEX 01 00:11:31
  TRACK 15 AUDIO
    TITLE "0:"
    INDEX 01 00:12:44
  TRACK 16 AUDIO
    TITLE "2:cjc132_0678"
    INDEX 01 00:13:55
  TRACK 17 AUDIO
    TITLE "0:"
    INDEX 01 00:15:64
  TRACK 18 AUDIO
    TITLE "2:cjc132_0679"
    INDEX 01 00:18:25
  TRACK 19 AUDIO
    TITLE "0:"
    INDEX 01 00:20:06
  TRACK 20 AUDIO
    TITLE "2:cjc132_0680"
    INDEX 01 00:22:09
  TRACK 21 AUDIO
    TITLE "0:"
    INDEX 01 00:24:33
  TRACK 22 AUDIO
    TITLE "2:cjc132_0681"
    INDEX 01 00:27:02
  TRACK 23 AUDIO
    TITLE "0:"
    INDEX 01 00:29:01
  TRACK 24 AUDIO
    TITLE "2:cjc132_0682"
    INDEX 01 00:31:16
  TRACK 25 AUDIO
    TITLE "0:"
    INDEX 01 00:32:58
  TRACK 26 AUDIO
    TITLE "2:cjc132_0683"
    INDEX 01 00:34:42
  TRACK 27 AUDIO
    TITLE "0:"
    INDEX 01 00:36:44
  TRACK 28 AUDIO
    TITLE "2:cjc132_0684"
    INDEX 01 00:38:69
  TRACK 29 AUDIO
    TITLE "0:"
    INDEX 01 00:40:73
  TRACK 30 AUDIO
    TITLE "2:cjc132_0685"
    INDEX 01 00:43:23
  TRACK 31 AUDIO
    TITLE "0:"
    INDEX 01 00:45:53
  TRACK 32 AUDIO
    TITLE "2:cjc132_0686"
    INDEX 01 00:48:26
  TRACK 33 AUDIO
    TITLE "0:"
    INDEX 01 00:50:03
  TRACK 34 AUDIO
    TITLE "2:cjc132_0687"
    INDEX 01 00:51:71
  TRACK 35 AUDIO
    TITLE "0:"
    INDEX 01 00:54:21
  TRACK 36 AUDIO
    TITLE "2:cjc132_0688"
    INDEX 01 00:56:67
  TRACK 37 AUDIO
    TITLE "0:"
    INDEX 01 00:58:44
  TRACK 38 AUDIO
    TITLE "2:cjc132_0689"
    INDEX 01 01:00:41
  TRACK 39 AUDIO
    TITLE "0:"
    INDEX 01 01:02:34
  TRACK 40 AUDIO
    TITLE "2:cjc132_0690"
    INDEX 01 01:04:47
  TRACK 41 AUDIO
    TITLE "0:"
    INDEX 01 01:06:12
  TRACK 42 AUDIO
    TITLE "2:cjc132_0691"
    INDEX 01 01:07:74
  TRACK 43 AUDIO
    TITLE "0:"
    INDEX 01 01:09:73
  TRACK 44 AUDIO
    TITLE "2:cjc132_0692"
    INDEX 01 01:12:17
  TRACK 45 AUDIO
    TITLE "0:"
    INDEX 01 01:14:00
  TRACK 46 AUDIO
    TITLE "2:cjc132_0693"
    INDEX 01 01:16:07
  TRACK 47 AUDIO
    TITLE "0:"
    INDEX 01 01:17:57
  TRACK 48 AUDIO
    TITLE "2:cjc132_0694"
    INDEX 01 01:19:52
  TRACK 49 AUDIO
    TITLE "0:"
    INDEX 01 01:21:57
  TRACK 50 AUDIO
    TITLE "2:cjc132_0695"
    INDEX 01 01:24:04
  TRACK 51 AUDIO
    TITLE "0:"
    INDEX 01 01:25:45
  TRACK 52 AUDIO
    TITLE "2:cjc132_0696"
    INDEX 01 01:27:30
  TRACK 53 AUDIO
    TITLE "0:"
    INDEX 01 01:29:05
  TRACK 54 AUDIO
    TITLE "2:cjc132_0697"
    INDEX 01 01:31:02
  TRACK 55 AUDIO
    TITLE "0:"
    INDEX 01 01:32:47
  TRACK 56 AUDIO
    TITLE "2:cjc132_0698"
    INDEX 01 01:34:38
  TRACK 57 AUDIO
    TITLE "0:"
    INDEX 01 01:36:66
  TRACK 58 AUDIO
    TITLE "2:cjc132_0699"
    INDEX 01 01:39:43
  TRACK 59 AUDIO
    TITLE "0:"
    INDEX 01 01:41:09
  TRACK 60 AUDIO
    TITLE "2:cjc132_0700"
    INDEX 01 01:42:71
  TRACK 61 AUDIO
    TITLE "0:"
    INDEX 01 01:44:30
  TRACK 62 AUDIO
    TITLE "2:cjc132_0701"
    INDEX 01 01:46:06
  TRACK 63 AUDIO
    TITLE "0:"
    INDEX 01 01:47:39
  TRACK 64 AUDIO
    TITLE "2:cjc132_0702"
    INDEX 01 01:49:14
  TRACK 65 AUDIO
    TITLE "0:"
    INDEX 01 01:50:70
  TRACK 66 AUDIO
    TITLE "2:cjc132_0703"
    INDEX 01 01:52:73
  TRACK 67 AUDIO
    TITLE "0:"
    INDEX 01 01:55:18
  TRACK 68 AUDIO
    TITLE "2:cjc132_0704"
    INDEX 01 01:57:62
  TRACK 69 AUDIO
    TITLE "0:"
    INDEX 01 01:59:08
  TRACK 70 AUDIO
    TITLE "2:cjc132_0705"
    INDEX 01 02:00:49
  TRACK 71 AUDIO
    TITLE "0:"
    INDEX 01 02:02:32
